<?xml version="1.0" encoding="utf-8"?>
<!-- Generator: Adobe Illustrator 14.0.0, SVG Export Plug-In . SVG Version: 6.00 Build 43363)  -->
<!DOCTYPE svg PUBLIC "-//W3C//DTD SVG 1.1//EN" "http://www.w3.org/Graphics/SVG/1.1/DTD/svg11.dtd">
<svg version="1.1" id="Calque_1" xmlns="http://www.w3.org/2000/svg" xmlns:xlink="http://www.w3.org/1999/xlink" x="0px" y="0px"
	 width="442.249px" height="107.84px" viewBox="0 0 442.249 107.84" enable-background="new 0 0 442.249 107.84"
	 xml:space="preserve">
<g>
	<defs>
		<rect id="SVGID_1_" width="442.249" height="107.84"/>
	</defs>
	<clipPath id="SVGID_2_">
		<use xlink:href="#SVGID_1_"  overflow="visible"/>
	</clipPath>
	<path clip-path="url(#SVGID_2_)" fill="#68934F" d="M60.713,90.721c-0.474,1.499-0.78,3.017-0.912,4.535
		c-0.102,1.164-0.102,2.321,0.002,3.468c0.053-0.009,0.107-0.017,0.16-0.024c1.649-0.271,3.218-0.599,4.707-0.978
		c5.89-1.503,10.778-3.896,14.68-6.94c4.884-4.306,8.38-10.506,9.758-18.373c-0.362-0.029-0.727-0.055-1.095-0.069
		C75.206,71.824,64.155,79.841,60.713,90.721"/>
	<path clip-path="url(#SVGID_2_)" fill="#95C11F" d="M17.905,70.251c-0.482-0.059-0.966-0.105-1.453-0.147
		c2.833,15.049,15.512,27.401,29.016,28.62c0.22-3.46,0.737-6.651,1.515-9.523C41.147,79.146,31.042,71.819,17.905,70.251"/>
	<path clip-path="url(#SVGID_2_)" fill="#F3A3B5" d="M83.693,23.473c0.375,1.643,0.609,1.738,0.689,3.47
		c0.344,7.421-2.123,14.746-7.02,20.859c-0.193,0.298-0.391,0.594-0.594,0.887c-0.179,0.26-0.361,0.518-0.547,0.774
		c-0.107,0.146-0.216,0.291-0.326,0.435c-0.279,0.37-0.563,0.737-0.86,1.097c-5.474,6.647-13.421,10.087-21.425,10.087
		c-6.207,0-12.448-2.066-17.602-6.311c-4.68-3.855-7.579-9.301-8.163-15.336C27.262,33.4,29.063,27.5,32.917,22.819
		c2.818-3.421,6.669-5.681,10.97-6.483c0,0,10.511-2.572,18.519,4.816c2.339,2.157,4.161,4.811,4.68,8.001
		c0.518,3.183-0.172,6.48-1.8,9.25c-0.581,0.987-1.275,1.906-2.059,2.741c-1.172,1.246-2.542,2.222-4.016,2.925
		c-0.024,0.018-0.049,0.035-0.073,0.053c-0.995,0.752-2.08,1.346-3.217,1.774L55.9,45.904c-0.163,0.06-0.326,0.118-0.49,0.172
		l-0.013,0.004c-0.336,0.11-0.677,0.203-1.02,0.285c-0.496,0.118-0.997,0.211-1.502,0.271l-0.097,0.011
		c-0.141,0.015-0.282,0.028-0.423,0.039c-0.048,0.004-0.097,0.008-0.144,0.011c-0.135,0.008-0.269,0.016-0.404,0.02
		c-0.054,0.002-0.109,0.003-0.163,0.005c-0.132,0.002-0.264,0.004-0.397,0.003c-0.052,0-0.104-0.002-0.156-0.003
		c-0.429-0.009-0.857-0.039-1.285-0.09c-0.07-0.009-0.141-0.016-0.211-0.025c-0.106-0.015-0.211-0.032-0.316-0.05
		c-0.087-0.014-0.174-0.027-0.261-0.043c-0.099-0.019-0.199-0.039-0.298-0.06c-0.092-0.019-0.185-0.039-0.277-0.06
		c-0.095-0.022-0.19-0.045-0.285-0.069c-0.097-0.025-0.194-0.052-0.292-0.079c-0.089-0.025-0.178-0.05-0.266-0.077
		c-0.109-0.033-0.216-0.069-0.324-0.104c-0.077-0.026-0.154-0.05-0.231-0.078c-0.174-0.061-0.347-0.126-0.518-0.196
		c-0.044-0.018-0.088-0.037-0.132-0.056c-0.145-0.06-0.29-0.123-0.434-0.189c-0.066-0.031-0.132-0.064-0.198-0.095
		c-0.114-0.056-0.228-0.112-0.341-0.17c-0.071-0.037-0.142-0.076-0.212-0.115c-0.107-0.058-0.214-0.118-0.32-0.179
		c-0.071-0.041-0.141-0.083-0.211-0.125c-0.106-0.065-0.212-0.132-0.318-0.201c-0.065-0.042-0.132-0.085-0.197-0.129
		c-0.114-0.077-0.226-0.157-0.338-0.238c-0.055-0.039-0.11-0.077-0.164-0.118c-0.165-0.123-0.328-0.249-0.489-0.382
		c-4.609-3.796-5.271-10.634-1.475-15.243c1.559-1.893,3.763-3.066,6.204-3.302c0.303-0.029,0.605-0.044,0.906-0.044h0.008
		c0.297,0.001,0.592,0.016,0.885,0.044l0.02,0.002c0.288,0.029,0.575,0.073,0.858,0.128l0.033,0.007
		c0.28,0.056,0.556,0.126,0.828,0.208l0.038,0.011h0.045l0.005,0.018c1.116,0.349,2.166,0.912,3.096,1.678
		c1.621,1.335,2.626,3.222,2.828,5.313c0.074,0.765,0.037,1.525-0.105,2.259c-0.279,1.444-1.667,2.248-2.97,2.004l-0.036-0.008
		c-0.108-0.022-0.214-0.052-0.32-0.088l-0.098-0.037c-0.089-0.034-0.176-0.075-0.262-0.121l-0.1-0.053
		c-0.114-0.068-0.226-0.142-0.333-0.23l-0.128-0.106c-0.264-0.218-0.47-0.482-0.617-0.776c-0.244-0.488-0.322-1.057-0.224-1.618
		c0.05-0.28,0.055-0.57,0.012-0.862c-0.102-0.694-0.717-1.552-1.305-1.937c-0.112-0.073-0.229-0.14-0.348-0.2l-0.029-0.014
		c-0.116-0.059-0.234-0.112-0.354-0.159c-0.5,0.219-0.959,0.53-1.346,0.93c-2.102,2.172-2.049,5.455,0.132,7.31
		c1.206,1.025,2.705,1.565,4.251,1.653c1.046-0.041,2.093-0.329,3.061-0.839c0.172-0.146,0.339-0.299,0.501-0.46
		c0.165-0.164,0.324-0.338,0.476-0.521c0.294-0.358,0.552-0.734,0.79-1.118l0.006,0.004c2.282-3.672,1.992-8.389-0.64-11.749
		c-0.22-0.281-0.457-0.554-0.71-0.815l-0.021-0.023c-0.113-0.116-0.23-0.229-0.349-0.34l-0.056-0.054
		c-0.136-0.125-0.275-0.247-0.42-0.365c-0.268-0.222-0.545-0.428-0.826-0.626c-0.043-0.03-0.085-0.06-0.128-0.09
		c-0.28-0.192-0.565-0.373-0.855-0.542l-0.1-0.056c-0.628-0.359-1.28-0.666-1.953-0.917c-0.32-0.038-0.643-0.065-0.969-0.076
		c-0.352-0.001-0.706,0.008-1.062,0.033c-1.578,0.114-3.11,0.488-4.543,1.093c-1.597,0.728-3.065,1.79-4.309,3.147
		c-2.981,3.25-4.631,7.413-4.627,11.725c0.003,4.341,1.681,8.298,4.729,11.124c0.572,0.531,1.174,1.015,1.798,1.463
		c3.272,2.172,7.141,3.364,11.234,3.467c0.53-0.008,1.061-0.031,1.596-0.081c5.462-0.518,10.519-3.191,14.231-7.496
		c4.333-5.026,7.397-12.223,6.904-18.96c-0.291-3.994-1.856-7.926-4.219-11.149c-3.325-4.536-9.47-5.867-14.81-6.047
		c-3.936-0.051-7.8,0.406-11.517,1.312c-16.92,4.472-30.895,19.849-33.024,38.853c-0.173,1.544-0.26,3.071-0.271,4.58
		c0.153-0.001,0.305,0.003,0.458,0.003c0.287,0.004,0.573,0.008,0.859,0.016c0.026-0.001,0.053,0,0.079-0.001
		c23.834,0.64,38.327,21.474,38.327,21.474c1.182-1.649,2.456-3.232,3.815-4.742c5.283-5.451,16.555-13.928,36.862-16.105
		c0.237-1.543,0.397-3.107,0.47-4.688C94.587,39.492,90.552,30.804,83.693,23.473"/>
	<path clip-path="url(#SVGID_2_)" fill="#3C3C3B" d="M92.047,15.792c-4.604-4.605-9.897-8.27-15.643-10.909
		C71.9,2.815,67.118,1.38,62.165,0.625C59.461,0.212,56.707,0,53.92,0C39.517,0,25.977,5.608,15.793,15.792S0,39.518,0,53.919
		c0,1.957,0.107,3.897,0.311,5.816c0.201,1.879,0.498,3.736,0.89,5.567c2.15,10.059,7.147,19.299,14.592,26.743
		c8.202,8.202,18.581,13.435,29.834,15.16c1.848,0.285,3.719,0.477,5.609,0.568c0.891,0.044,1.786,0.064,2.684,0.064
		c0.909,0,1.814-0.021,2.715-0.065c1.889-0.094,3.76-0.286,5.607-0.571c11.242-1.73,21.61-6.96,29.805-15.156
		c7.382-7.382,12.358-16.526,14.538-26.484c0.401-1.829,0.705-3.687,0.915-5.564c0.223-2.004,0.34-4.031,0.34-6.078
		C107.84,39.518,102.231,25.977,92.047,15.792 M46.541,101.644C26.982,98.631,11.256,83.841,6.862,64.767
		C7.45,64.744,8.04,64.73,8.634,64.73c18.091,0,33.887,10.003,42.157,24.765C48.892,93.352,47.465,97.424,46.541,101.644
		 M61.353,101.635c-1.854,0.287-3.744,0.467-5.661,0.535c-0.588,0.022-1.178,0.036-1.772,0.036c-0.572,0-1.141-0.013-1.708-0.032
		c0.467-1.977,1.056-3.906,1.759-5.781c0.895-2.389,1.973-4.688,3.217-6.878c8.308-14.627,24.029-24.518,42.018-24.518
		c0.573,0,1.142,0.015,1.709,0.034C96.44,83.958,80.797,98.618,61.353,101.635 M101.891,59.431
		c-0.891-0.044-1.786-0.065-2.685-0.065c-14.402,0-27.942,5.608-38.127,15.793c-2.682,2.681-5.043,5.598-7.072,8.701
		c-2.067-3.202-4.487-6.21-7.246-8.969C36.577,64.705,23.037,59.098,8.634,59.098c-0.909,0-1.814,0.021-2.715,0.066
		c-0.187-1.723-0.286-3.472-0.286-5.245c0-26.625,21.661-48.287,48.287-48.287c5.365,0,10.527,0.883,15.352,2.506
		c3.224,1.084,5.154,3.479,6.033,4.845c2.309,3.896,3.756,8.282,4.205,12.925c0.805,8.317-1.678,16.451-6.991,22.902
		c-4.154,5.045-10.025,8.17-16.53,8.8c-6.504,0.628-12.865-1.313-17.91-5.468c-3.919-3.228-6.347-7.789-6.836-12.843
		c-0.489-5.054,1.019-9.996,4.247-13.916c2.487-3.019,6.001-4.89,9.894-5.266c3.895-0.377,7.701,0.785,10.72,3.272
		c4.747,3.909,5.429,10.952,1.519,15.698c-2.93,3.558-8.208,4.069-11.766,1.139c-2.606-2.147-2.98-6.014-0.834-8.62
		c0.737-0.894,1.777-1.447,2.93-1.559c0.991-0.096,1.963,0.145,2.784,0.682c0.638,0.417,1.306,1.349,1.416,2.103
		c0.047,0.316,0.042,0.631-0.012,0.935c-0.172,0.975,0.148,1.97,0.912,2.599l0.14,0.115c1.613,1.328,4.075,0.46,4.471-1.592
		c0.155-0.797,0.194-1.622,0.114-2.453c-0.22-2.27-1.31-4.318-3.071-5.769c-2.055-1.693-4.646-2.484-7.297-2.227
		c-2.65,0.257-5.042,1.53-6.735,3.585c-4.121,5.004-3.403,12.428,1.602,16.549c5.955,4.904,14.79,4.049,19.695-1.906
		c5.883-7.144,4.858-17.743-2.287-23.627c-4.181-3.444-9.452-5.052-14.843-4.531c-5.391,0.522-10.257,3.111-13.7,7.293
		c-4.185,5.081-6.14,11.487-5.506,18.039c0.634,6.551,3.781,12.464,8.862,16.649c5.595,4.607,12.371,6.853,19.109,6.853
		c8.69,0,17.317-3.735,23.261-10.953c6.269-7.612,9.198-17.211,8.249-27.026c-0.346-3.57-1.191-7.011-2.491-10.249
		c11.872,8.806,19.581,22.92,19.581,38.803C102.207,55.783,102.098,57.62,101.891,59.431"/>
	<polygon clip-path="url(#SVGID_2_)" fill="#3C3C3B" points="139.793,35.41 139.793,51.304 161.474,51.304 161.474,58.409 
		139.793,58.409 139.793,80.455 131.882,80.455 131.882,28.306 165.21,28.306 165.21,35.41 	"/>
	<path clip-path="url(#SVGID_2_)" fill="#3C3C3B" d="M180.521,80.456c-7.105,0-10.181-4.762-10.181-10.254V28.306h7.471v41.458
		c0,2.855,1.025,4.32,4.028,4.32h3.296v6.372H180.521z"/>
	<path clip-path="url(#SVGID_2_)" fill="#3C3C3B" d="M215.241,76.501c-2.417,2.489-6.079,4.396-11.134,4.396
		c-5.054,0-8.643-1.906-11.06-4.396c-3.515-3.661-4.394-8.35-4.394-14.649c0-6.227,0.879-10.914,4.394-14.576
		c2.417-2.49,6.006-4.395,11.06-4.395c5.055,0,8.717,1.905,11.134,4.395c3.516,3.662,4.395,8.349,4.395,14.576
		C219.636,68.151,218.757,72.84,215.241,76.501 M209.601,51.669c-1.392-1.39-3.296-2.123-5.494-2.123
		c-2.196,0-4.028,0.733-5.42,2.123c-2.27,2.271-2.563,6.153-2.563,10.182c0,4.03,0.293,7.912,2.563,10.18
		c1.392,1.394,3.224,2.199,5.42,2.199c2.198,0,4.102-0.806,5.494-2.199c2.271-2.268,2.564-6.149,2.564-10.18
		C212.165,57.822,211.872,53.94,209.601,51.669"/>
	<path clip-path="url(#SVGID_2_)" fill="#3C3C3B" d="M245.787,52.037c-1.684-1.684-3.002-2.49-5.565-2.49
		c-4.028,0-7.398,3.223-7.398,8.349v22.561h-7.471V43.321h7.325v4.029c1.904-2.637,5.714-4.469,9.887-4.469
		c3.59,0,6.3,0.952,8.864,3.516L245.787,52.037z"/>
	<path clip-path="url(#SVGID_2_)" fill="#3C3C3B" d="M255.825,28.085h7.91v7.911h-7.91V28.085z M256.044,43.321h7.472v37.135h-7.472
		V43.321z"/>
	<path clip-path="url(#SVGID_2_)" fill="#3C3C3B" d="M284.465,80.896c-6.079,0-11.206-1.024-15.602-5.349l4.908-4.905
		c3.003,3.075,7.031,3.882,10.693,3.882c4.542,0,8.131-1.611,8.131-5.128c0-2.49-1.392-4.103-4.981-4.396l-5.933-0.511
		c-6.957-0.586-10.987-3.737-10.987-10.255c0-7.252,6.226-11.354,13.991-11.354c5.565,0,10.327,1.173,13.77,4.177l-4.687,4.76
		c-2.345-1.978-5.641-2.711-9.157-2.711c-4.468,0-6.737,1.979-6.737,4.761c0,2.198,1.171,3.883,5.126,4.25l5.861,0.511
		c6.957,0.586,11.06,3.882,11.06,10.477C299.921,76.868,293.328,80.896,284.465,80.896"/>
	<path clip-path="url(#SVGID_2_)" fill="#3C3C3B" d="M318.087,80.896c-6.079,0-11.205-1.024-15.602-5.349l4.908-4.905
		c3.003,3.075,7.031,3.882,10.693,3.882c4.543,0,8.131-1.611,8.131-5.128c0-2.49-1.392-4.103-4.981-4.396l-5.933-0.511
		c-6.959-0.586-10.987-3.737-10.987-10.255c0-7.252,6.226-11.354,13.99-11.354c5.566,0,10.328,1.173,13.771,4.177l-4.687,4.76
		c-2.345-1.978-5.641-2.711-9.157-2.711c-4.468,0-6.738,1.979-6.738,4.761c0,2.198,1.172,3.883,5.127,4.25l5.861,0.511
		c6.958,0.586,11.059,3.882,11.059,10.477C333.542,76.868,326.95,80.896,318.087,80.896"/>
	<path clip-path="url(#SVGID_2_)" fill="#3C3C3B" d="M339.113,28.085h7.91v7.911h-7.91V28.085z M339.334,43.321h7.471v37.135h-7.471
		V43.321z"/>
	<path clip-path="url(#SVGID_2_)" fill="#3C3C3B" d="M399.543,80.456V57.822c0-5.786-3.299-8.275-7.473-8.275
		c-4.027,0-7.69,2.563-7.69,7.911v22.998h-7.472V57.822c0-5.786-3.297-8.275-7.471-8.275c-4.175,0-7.692,2.563-7.692,8.275v22.634
		h-7.47V43.321h7.325v3.736c2.489-2.711,6.152-4.176,9.888-4.176c4.615,0,8.203,1.832,10.547,5.42
		c3.003-3.662,6.739-5.42,11.647-5.42c3.808,0,7.177,1.246,9.375,3.369c2.856,2.784,3.955,6.301,3.955,10.475v23.731H399.543z"/>
	<path clip-path="url(#SVGID_2_)" fill="#3C3C3B" d="M418.152,64.049c0,6.372,3.368,10.401,9.448,10.401
		c4.175,0,6.372-1.173,9.009-3.808l4.762,4.466c-3.811,3.81-7.398,5.788-13.916,5.788c-9.303,0-16.7-4.908-16.7-19.045
		c0-12.013,6.225-18.971,15.747-18.971c9.962,0,15.748,7.326,15.748,17.872v3.296H418.152z M433.827,53.794
		c-1.173-2.783-3.81-4.688-7.325-4.688s-6.228,1.905-7.398,4.688c-0.731,1.685-0.879,2.785-0.951,5.055h16.699
		C434.778,56.579,434.559,55.479,433.827,53.794"/>
</g>
</svg>
